<svg width="530" height="686" viewBox="0 0 530 686" fill="none" xmlns="http://www.w3.org/2000/svg">
<path fill-rule="evenodd" clip-rule="evenodd" d="M529.038 77.6351L418.628 127.825L418.622 127.828C455.42 153.918 485.918 189.767 505.878 233.655C564.456 362.461 510.811 514.336 386.329 578.359L386.488 578.795L376.076 583.48C375.515 583.738 374.952 583.994 374.388 584.245C373.874 584.479 373.361 584.711 372.847 584.941L177.158 673.995C110.638 704.235 32.1077 674.775 1.86768 608.245L110.874 558.666C74.1604 532.487 43.6752 496.72 23.7176 452.845C-36.6724 319.975 22.2477 162.645 155.208 102.175L209.978 222.695C143.538 252.935 114.078 331.555 144.228 398.075C174.205 463.897 251.775 493.422 317.821 464.527L319.628 463.705L320.591 463.269C386.345 432.795 415.37 354.54 385.358 288.425C355.272 222.323 277.218 192.747 210.993 222.228L209.988 222.685L209.986 222.681L155.218 102.165L353.658 11.8851C420.268 -18.3549 498.718 11.1051 529.038 77.6351Z" fill="black"/>
</svg>
